<?xml version="1.0" standalone="no"?>
<!DOCTYPE svg PUBLIC "-//W3C//DTD SVG 20010904//EN"
 "http://www.w3.org/TR/2001/REC-SVG-20010904/DTD/svg10.dtd">
<svg version="1.0" xmlns="http://www.w3.org/2000/svg"
 width="150.000000pt" height="150.000000pt" viewBox="0 0 150.000000 150.000000"
 preserveAspectRatio="xMidYMid meet">
<metadata>
Created by potrace 1.11, written by Peter Selinger 2001-2013
</metadata>
<g transform="translate(0.000000,150.000000) scale(0.100000,-0.100000)"
fill="#000000" stroke="none">
<path d="M720 1477 c-19 -12 -38 -25 -41 -30 -4 -5 -7 -71 -7 -148 l0 -138 40
-24 41 -24 -73 -41 c-39 -23 -76 -42 -81 -42 -5 0 -9 19 -9 43 0 46 1 45 -100
100 -30 17 -75 43 -100 58 l-45 28 -40 -23 c-37 -22 -40 -28 -43 -74 l-3 -49
93 -54 c167 -95 156 -92 193 -69 18 11 35 20 39 20 3 0 6 -41 6 -91 l0 -90
-41 24 -40 24 -124 -71 -125 -71 0 -50 c0 -48 1 -51 42 -73 l42 -23 120 70
121 69 3 47 c4 53 -1 53 95 -2 l68 -40 -40 -26 -39 -26 2 -143 1 -143 40 -22
40 -22 40 22 40 23 3 145 3 145 -42 23 -41 23 74 44 c40 24 76 44 80 44 4 0 8
-21 10 -46 l3 -45 122 -70 121 -71 41 24 c39 22 41 25 41 73 l0 50 -124 71
-123 71 -41 -23 -41 -23 0 89 c0 50 2 90 4 90 2 0 21 -9 40 -20 l36 -20 125
71 124 72 0 47 c0 44 -3 49 -39 73 l-39 26 -49 -27 c-209 -114 -210 -114 -203
-190 2 -23 1 -23 -52 8 -29 17 -63 36 -75 42 -32 16 -28 32 12 51 l36 17 -3
145 -3 145 -40 25 -41 24 -34 -22z"/>
<path d="M100 285 c-21 -25 -8 -50 28 -53 47 -5 43 -32 -5 -32 -26 0 -34 -3
-26 -11 6 -6 26 -9 44 -7 30 3 34 6 34 33 0 25 -5 31 -30 35 -40 7 -38 24 3
28 17 2 32 7 32 13 0 15 -66 10 -80 -6z"/>
<path d="M203 240 c0 -39 4 -60 12 -60 7 0 11 14 10 35 -1 19 -1 35 1 35 2 0
10 -16 19 -36 18 -43 34 -40 51 7 l12 34 1 -37 c2 -63 21 -42 21 22 0 72 -20
82 -40 20 -7 -22 -16 -40 -20 -40 -4 0 -15 18 -25 40 -26 59 -42 51 -42 -20z"/>
<path d="M372 250 c-24 -55 -27 -70 -13 -70 5 0 17 21 27 46 15 39 19 43 27
28 7 -13 7 -19 -1 -22 -18 -6 -14 -22 4 -22 9 0 23 -8 30 -17 24 -34 23 -7 -3
50 -14 31 -31 57 -38 57 -6 0 -21 -23 -33 -50z"/>
<path d="M484 243 c1 -31 6 -58 12 -60 7 -2 11 14 10 44 -1 42 2 48 22 51 15
2 22 -2 22 -12 0 -9 -7 -16 -15 -16 -20 0 -18 -20 4 -47 27 -33 48 -30 26 3
-10 15 -13 29 -8 33 5 3 12 14 16 24 4 11 14 17 24 15 14 -2 18 -13 18 -43 0
-55 19 -55 23 0 2 30 8 45 17 45 8 0 17 5 20 10 4 7 -12 10 -44 9 -28 -1 -51
-6 -51 -11 0 -5 -9 -4 -19 2 -11 5 -33 10 -49 10 -28 0 -29 -1 -28 -57z"/>
<path d="M736 284 c-21 -20 -20 -68 0 -89 10 -10 29 -15 48 -13 25 2 31 8 31
26 0 12 -4 21 -10 20 -5 -2 -9 -7 -7 -11 4 -14 -28 -19 -43 -7 -20 17 -19 36
4 59 13 13 27 18 42 14 15 -4 20 -3 15 5 -10 17 -62 15 -80 -4z"/>
<path d="M870 279 c-24 -45 -40 -101 -27 -96 6 2 19 23 28 47 15 42 17 43 28
22 10 -18 9 -22 -4 -22 -8 0 -15 -5 -15 -10 0 -6 6 -10 14 -8 7 2 23 -8 34
-22 29 -35 28 -8 -3 58 -26 56 -38 63 -55 31z"/>
<path d="M970 240 c0 -33 4 -60 10 -60 6 0 10 23 10 50 0 42 3 50 18 50 30 0
35 -13 11 -30 l-21 -17 25 -29 c14 -16 29 -26 33 -22 4 5 0 16 -10 27 -15 16
-15 19 -1 31 20 16 19 46 -1 54 -9 3 -29 6 -45 6 -29 0 -29 0 -29 -60z"/>
<path d="M1079 257 c-6 -70 -2 -77 41 -77 46 0 71 27 64 69 -6 34 -30 51 -70
51 -31 0 -32 -2 -35 -43z m75 8 c22 -22 6 -59 -28 -63 -24 -3 -26 -1 -26 37 0
34 3 41 19 41 11 0 26 -7 35 -15z"/>
<path d="M1203 240 l0 -60 38 0 c47 0 61 18 17 22 -42 4 -39 21 4 29 32 5 26
14 -15 21 -27 5 -25 23 3 26 47 7 46 22 -1 22 l-46 0 0 -60z"/>
<path d="M1309 283 c-4 -62 -1 -97 9 -101 8 -2 12 11 12 39 l0 43 31 -42 c17
-24 36 -41 43 -39 14 5 15 107 1 107 -6 1 -12 -16 -15 -37 l-5 -37 -28 42
c-29 45 -46 53 -48 25z"/>
<path d="M94 96 c1 -35 5 -51 16 -53 10 -3 11 -2 3 4 -6 5 -14 29 -16 53 l-4
45 1 -49z"/>
<path d="M151 105 c0 -23 -6 -46 -13 -53 -9 -9 -9 -12 0 -12 15 0 25 39 19 76
-3 23 -4 21 -6 -11z"/>
<path d="M788 133 c22 -4 33 -43 12 -43 -5 0 -10 -5 -10 -11 0 -8 5 -7 15 1
24 20 15 55 -15 56 -22 1 -22 0 -2 -3z"/>
<path d="M945 131 c4 -8 2 -17 -6 -22 -9 -5 -10 -9 -2 -9 7 0 9 -11 7 -30 -3
-16 -2 -30 3 -30 11 0 10 86 -1 97 -5 5 -6 2 -1 -6z"/>
<path d="M543 115 c0 -8 7 -15 15 -15 12 0 12 3 2 15 -7 8 -13 15 -15 15 -1 0
-2 -7 -2 -15z"/>
<path d="M1110 115 c0 -8 4 -15 8 -15 5 0 9 7 9 15 0 8 -4 15 -9 15 -4 0 -8
-7 -8 -15z"/>
<path d="M755 80 c0 -21 3 -36 8 -33 8 5 6 63 -3 68 -3 2 -6 -14 -5 -35z"/>
<path d="M177 91 c-3 -12 -1 -21 4 -21 5 0 9 7 9 15 0 30 29 15 33 -17 l5 -33
-2 35 c-1 28 -6 36 -22 38 -15 2 -23 -3 -27 -17z"/>
<path d="M253 75 c0 -22 2 -30 4 -17 2 12 2 30 0 40 -3 9 -5 -1 -4 -23z"/>
<path d="M344 96 c-9 -23 0 -51 16 -52 9 0 10 1 3 3 -19 7 -15 20 7 26 12 3
20 13 19 24 -1 16 -2 16 -6 1 -2 -10 -11 -18 -19 -18 -17 0 -19 16 -1 23 9 4
9 6 -1 6 -7 1 -15 -5 -18 -13z"/>
<path d="M411 94 c0 -11 3 -14 6 -6 3 7 2 16 -1 19 -3 4 -6 -2 -5 -13z"/>
<path d="M450 94 c0 -9 9 -18 20 -21 25 -7 26 -20 3 -26 -14 -4 -12 -5 5 -6
28 -1 30 29 2 36 -25 7 -26 20 -2 26 13 4 11 5 -5 6 -15 1 -23 -5 -23 -15z"/>
<path d="M519 108 c-5 -18 -6 -38 -1 -34 7 8 12 36 6 36 -2 0 -4 -1 -5 -2z"/>
<path d="M590 75 c0 -19 3 -35 8 -35 4 0 7 16 7 35 0 19 -3 35 -7 35 -5 0 -8
-16 -8 -35z"/>
<path d="M625 75 c0 -19 4 -34 8 -32 5 1 8 6 8 10 -1 4 -1 18 -1 32 0 14 -3
25 -7 25 -5 0 -8 -16 -8 -35z"/>
<path d="M655 100 c-3 -5 6 -17 20 -26 20 -13 23 -19 13 -25 -9 -6 -9 -9 -1
-9 15 0 30 23 17 27 -5 2 -16 8 -24 13 -13 9 -13 11 0 20 13 8 13 10 -2 10 -9
0 -19 -4 -23 -10z"/>
<path d="M837 104 c-4 -4 -7 -20 -7 -36 0 -20 5 -28 18 -27 10 0 12 3 5 6 -21
8 -16 53 6 53 16 0 18 -5 14 -31 -2 -18 -1 -29 5 -25 5 3 8 18 8 33 -2 20 -8
29 -22 31 -11 2 -23 0 -27 -4z"/>
<path d="M904 96 c-9 -23 -1 -49 16 -53 12 -4 13 -3 1 5 -8 6 -12 20 -9 36 6
28 1 35 -8 12z"/>
<path d="M979 98 c-1 -7 -2 -24 -3 -38 0 -14 -5 -31 -9 -37 -5 -8 -4 -13 2
-13 6 0 11 3 12 8 4 25 6 92 3 92 -2 0 -5 -6 -5 -12z"/>
<path d="M1004 84 c-4 -14 -2 -30 4 -36 8 -8 9 -5 5 11 -3 11 0 28 7 36 8 10
9 15 1 15 -6 0 -14 -12 -17 -26z"/>
<path d="M1045 93 c1 -10 -1 -25 -6 -34 -5 -10 -4 -16 5 -16 8 0 13 13 13 34
0 18 -4 33 -8 33 -4 0 -6 -8 -4 -17z"/>
<path d="M1145 72 c1 -20 -3 -43 -8 -49 -6 -9 -6 -13 2 -13 12 0 12 0 15 53 1
21 0 40 -4 42 -3 2 -6 -13 -5 -33z"/>
<path d="M1174 96 c-9 -23 -1 -49 16 -53 9 -3 11 -1 5 4 -15 12 -16 53 -1 53
6 0 17 -5 22 -10 7 -7 11 -6 11 5 0 19 -46 20 -53 1z"/>
<path d="M1249 103 c0 -5 -3 -21 -5 -38 -3 -16 -3 -27 0 -24 3 3 7 15 9 28 2
12 10 27 18 32 11 7 11 9 -3 9 -10 0 -18 -3 -19 -7z"/>
<path d="M1290 95 c0 -8 2 -15 4 -15 2 0 6 7 10 15 3 8 1 15 -4 15 -6 0 -10
-7 -10 -15z"/>
<path d="M1328 81 c4 -31 -14 -52 -24 -27 -3 9 -11 16 -17 16 -5 0 -2 -9 7
-19 25 -27 46 -16 46 25 0 19 -4 34 -8 34 -5 0 -7 -13 -4 -29z"/>
<path d="M1363 75 c0 -22 2 -30 4 -17 2 12 2 30 0 40 -3 9 -5 -1 -4 -23z"/>
<path d="M1390 100 c20 -13 33 -13 25 0 -3 6 -14 10 -23 10 -15 0 -15 -2 -2
-10z"/>
<path d="M281 80 c0 -8 4 -22 9 -30 9 -13 11 -13 20 0 5 8 9 22 9 30 -1 11 -3
10 -6 -2 -2 -10 -8 -18 -13 -18 -5 0 -11 8 -13 18 -3 12 -5 13 -6 2z"/>
<path d="M1074 65 c1 -14 9 -21 26 -23 21 -2 25 2 26 23 1 14 -2 25 -7 25 -5
0 -8 -3 -8 -7 5 -34 -26 -48 -34 -15 -3 13 -4 12 -3 -3z"/>
<path d="M1409 78 c-5 -18 -6 -38 -1 -34 7 8 12 36 6 36 -2 0 -4 -1 -5 -2z"/>
<path d="M546 55 c4 -8 10 -15 15 -15 4 0 6 7 3 15 -4 8 -10 15 -15 15 -4 0
-6 -7 -3 -15z"/>
<path d="M1217 63 c-4 -3 -7 -11 -7 -17 0 -6 5 -5 12 2 6 6 9 14 7 17 -3 3 -9
2 -12 -2z"/>
</g>
</svg>
